<svg xmlns="http://www.w3.org/2000/svg" viewBox="0 0 128 78.08"><defs><style>.cls-1{fill:#e5decf;}.cls-2{fill:#eecf95;}.cls-3{fill:#d2cbbe;}.cls-4{fill:#dbbc82;}</style></defs><title>card_front</title><g id="Capa_6" data-name="Capa 6"><g id="card_copia"><g id="Front"><g id="Card_Left"><path class="cls-1" d="M0,66.08v-62a17.08,17.08,0,0,1,2-2,17.28,17.28,0,0,1,3-2l59,39v39H14a20.62,20.62,0,0,1-14-12Z"/><path class="cls-2" d="M64,50.08v-11L5,.08a17.28,17.28,0,0,0-3,2,17.08,17.08,0,0,0-2,2v5Z"/></g><g id="Card_Right"><path class="cls-3" d="M128,66.08v-62a17.08,17.08,0,0,0-2-2,17.28,17.28,0,0,0-3-2l-59,39v39h50a20.62,20.62,0,0,0,14-12Z"/><path class="cls-4" d="M64,50.08v-11l59-39a17.28,17.28,0,0,1,3,2,17.08,17.08,0,0,1,2,2v5Z"/></g></g></g></g></svg>
