<svg xmlns="http://www.w3.org/2000/svg" viewBox="0 0 89.9 106.11"><defs><style>.cls-1{fill:#8dcfe0;}.cls-2{fill:#e9e9e9;}.cls-3{fill:#b4e1ec;}.cls-4{fill:#fff;}</style></defs><title>letter</title><g id="Capa_6" data-name="Capa 6"><g id="card_copia"><g id="Letter-2" data-name="Letter"><g id="Right"><path id="Right-2" data-name="Right" class="cls-1" d="M44.9,106V0h41a5.77,5.77,0,0,1,2,1,6.22,6.22,0,0,1,1,1,6.15,6.15,0,0,1,1,2V106Z"/><path class="cls-2" d="M44.9,24V50l16-16V27l-6-6h-7Z"/></g><g id="Left"><path class="cls-3" d="M44.9,106V0H3.9a5.61,5.61,0,0,0-2,1,5.83,5.83,0,0,0-1,1,5.77,5.77,0,0,0-1,2V106Z"/><path class="cls-4" d="M44.9,24V50l-16-16V27l6-6h7Z"/></g></g></g></g></svg>
