<svg id="Card_love_letter" xmlns="http://www.w3.org/2000/svg" viewBox="0 0 128.33 128.33"><defs><style>.cls-1{fill:#d2cbbe;}.cls-2{fill:#e5decf;}.cls-3{fill:#df5a76;}.cls-4{fill:#e9e9e9;}.cls-5{fill:#f4607f;}.cls-6{fill:#fff;}.cls-7{fill:#f7f0e2;}.cls-8{fill:#e2dbcf;}</style></defs><title>love_letter</title><g id="Card_Back"><path id="Right" class="cls-1" d="M64.5,50.33h59a17.28,17.28,0,0,1,3,2,16.35,16.35,0,0,1,2,2v62a21.32,21.32,0,0,1-4,6,22,22,0,0,1-10,6h-50Z"/><path id="Left" class="cls-2" d="M.5,116.33v-62a16.35,16.35,0,0,1,2-2,17.28,17.28,0,0,1,3-2h59v78h-50a20.62,20.62,0,0,1-14-12Z"/></g><g id="Card_Top"><g id="Right-2" data-name="Right"><path class="cls-1" d="M123.5,50.33h-59V.33h1a3.24,3.24,0,0,1,2,1Z"/></g><g id="Left-2" data-name="Left"><path class="cls-2" d="M5.5,50.33h59V.33h-1a3.24,3.24,0,0,0-2,1Z"/></g></g><g id="letter"><g id="Right-3" data-name="Right"><path id="Right-4" data-name="Right" class="cls-3" d="M64.5,128.33v-106h41a6.06,6.06,0,0,1,2,1,6.22,6.22,0,0,1,1,1,5.77,5.77,0,0,1,1,2v102Z"/><path class="cls-4" d="M64.5,46.33v26l16-16v-7l-6-6h-7Z"/></g><g id="Left-3" data-name="Left"><path class="cls-5" d="M64.5,128.33v-106h-41a6.06,6.06,0,0,0-2,1,6.22,6.22,0,0,0-1,1,5.77,5.77,0,0,0-1,2v102Z"/><path class="cls-6" d="M64.5,46.33v26l-16-16v-7l6-6h7Z"/></g></g><g id="Card_Base"><g id="Card_Left"><path class="cls-2" d="M.5,116.33v-62a16.35,16.35,0,0,1,2-2,17.28,17.28,0,0,1,3-2l59,39v39h-50a20.62,20.62,0,0,1-14-12Z"/><path class="cls-7" d="M64.5,100.33v-11l-59-39a17.28,17.28,0,0,0-3,2,16.35,16.35,0,0,0-2,2v5Z"/></g><g id="Card_Right"><path class="cls-1" d="M128.5,116.33v-62a16.35,16.35,0,0,0-2-2,17.28,17.28,0,0,0-3-2l-59,39v39h50a20.62,20.62,0,0,0,14-12Z"/><path class="cls-8" d="M64.5,100.33v-11l59-39a17.28,17.28,0,0,1,3,2,16.35,16.35,0,0,1,2,2v5Z"/></g></g></svg>